<svg width="248" height="74" viewBox="0 0 248 74" fill="none" xmlns="http://www.w3.org/2000/svg">
<g filter="url(#filter0_d_78688_2)">
<rect x="4.99976" y="4.99951" width="228" height="54" fill="#E3B873"/>
</g>
<path d="M24.362 37.7295L25.442 37.4595V25.9395L24.362 25.6695V25.3995H33.992V28.6395H33.452C33.224 28.4595 33.026 28.2315 32.858 27.9555C32.474 27.3075 32.282 26.6055 32.282 25.8495H28.412V31.5195H30.482C30.566 31.0635 30.722 30.6375 30.95 30.2415C31.046 30.0615 31.16 29.8875 31.292 29.7195H31.832V33.7695H31.292C31.16 33.6015 31.046 33.4275 30.95 33.2475C30.722 32.8515 30.566 32.4255 30.482 31.9695H28.412V37.4595L29.492 37.7295V37.9995H24.362V37.7295ZM35.3483 37.7295L36.4283 37.4595V25.9395L35.3483 25.6695V25.3995H40.1183C42.1583 25.3995 43.6283 25.7115 44.5283 26.3355C45.4283 26.9475 45.8783 27.8055 45.8783 28.9095C45.8783 29.6535 45.6803 30.2595 45.2843 30.7275C44.8883 31.1835 44.3783 31.5255 43.7543 31.7535C43.0943 32.0055 42.3923 32.1375 41.6483 32.1495V32.2395C42.0923 32.2635 42.4823 32.3295 42.8183 32.4375C43.6583 32.7015 44.2283 33.1755 44.5283 33.8595L46.1483 37.4595L47.0483 37.7295V37.9995H44.5283C43.5443 37.9995 42.8243 37.4895 42.3683 36.4695L40.5683 32.4195H39.3983V37.4595L40.6583 37.7295V37.9995H35.3483V37.7295ZM40.1183 31.9695C40.9583 31.9695 41.6183 31.7055 42.0983 31.1775C42.5783 30.6495 42.8183 29.8935 42.8183 28.9095C42.8183 27.9255 42.5783 27.1695 42.0983 26.6415C41.6183 26.1135 40.9583 25.8495 40.1183 25.8495H39.3983V31.9695H40.1183ZM53.5361 38.2695C52.3601 38.2695 51.3281 38.0175 50.4401 37.5135C49.5641 36.9975 48.8861 36.2475 48.4061 35.2635C47.9261 34.2795 47.6861 33.0915 47.6861 31.6995C47.6861 30.3075 47.9261 29.1195 48.4061 28.1355C48.8861 27.1515 49.5641 26.4075 50.4401 25.9035C51.3281 25.3875 52.3601 25.1295 53.5361 25.1295C54.7121 25.1295 55.7381 25.3875 56.6141 25.9035C57.5021 26.4075 58.1861 27.1515 58.6661 28.1355C59.1461 29.1195 59.3861 30.3075 59.3861 31.6995C59.3861 33.0915 59.1461 34.2795 58.6661 35.2635C58.1861 36.2475 57.5021 36.9975 56.6141 37.5135C55.7381 38.0175 54.7121 38.2695 53.5361 38.2695ZM53.5361 37.9095C54.0041 37.9095 54.4361 37.7115 54.8321 37.3155C55.2401 36.9195 55.5761 36.2595 55.8401 35.3355C56.1041 34.4115 56.2361 33.1995 56.2361 31.6995C56.2361 30.1995 56.1041 28.9875 55.8401 28.0635C55.5761 27.1395 55.2401 26.4795 54.8321 26.0835C54.4361 25.6875 54.0041 25.4895 53.5361 25.4895C53.0681 25.4895 52.6301 25.6875 52.2221 26.0835C51.8261 26.4795 51.4961 27.1395 51.2321 28.0635C50.9681 28.9875 50.8361 30.1995 50.8361 31.6995C50.8361 33.1995 50.9681 34.4115 51.2321 35.3355C51.4961 36.2595 51.8261 36.9195 52.2221 37.3155C52.6301 37.7115 53.0681 37.9095 53.5361 37.9095ZM62.7203 27.6495V37.1895L64.1603 37.7295V37.9995H60.7403V37.7295L62.1803 37.1895V25.9395L61.1003 25.6695V25.3995H63.3503C63.9743 25.3995 64.4663 25.5315 64.8263 25.7955C65.1983 26.0475 65.5163 26.4255 65.7803 26.9295L69.7043 34.4355L72.7103 26.9295C72.9143 26.4015 73.1903 26.0175 73.5383 25.7775C73.8863 25.5255 74.4203 25.3995 75.1403 25.3995H77.0303V25.6695L75.9503 25.9395V37.4595L77.0303 37.7295V37.9995H71.9003V37.7295L72.9803 37.4595V27.6495L68.7503 38.1795H68.2103L62.7203 27.6495ZM84.2415 37.9995V37.7295L85.5015 37.3695V27.4875L83.6115 28.8195L83.2515 28.3695L86.5275 25.3995H88.4715V37.3695L89.7315 37.7295V37.9995H84.2415ZM95.4107 38.2695C93.8987 38.2695 92.7527 37.9695 91.9727 37.3695C91.2047 36.7695 90.8207 35.9895 90.8207 35.0295C90.8207 34.3695 91.1087 33.7335 91.6847 33.1215C92.2607 32.4975 92.9627 32.0535 93.7907 31.7895C92.9987 31.3455 92.3927 30.8595 91.9727 30.3315C91.5647 29.7915 91.3607 29.1375 91.3607 28.3695C91.3607 27.4095 91.7447 26.6295 92.5127 26.0295C93.2927 25.4295 94.4387 25.1295 95.9507 25.1295C96.7067 25.1295 97.3667 25.2675 97.9307 25.5435C98.5067 25.8195 98.9507 26.1795 99.2627 26.6235C99.5747 27.0675 99.7307 27.5295 99.7307 28.0095C99.7307 28.5735 99.4847 29.1195 98.9927 29.6475C98.5127 30.1755 97.9487 30.5295 97.3007 30.7095C98.3927 31.1895 99.2207 31.7595 99.7847 32.4195C100.349 33.0795 100.631 33.8895 100.631 34.8495C100.631 35.4735 100.439 36.0435 100.055 36.5595C99.6707 37.0755 99.0887 37.4895 98.3087 37.8015C97.5287 38.1135 96.5627 38.2695 95.4107 38.2695ZM96.7607 30.3495C97.2167 30.1455 97.5827 29.8515 97.8587 29.4675C98.1467 29.0835 98.2907 28.5975 98.2907 28.0095C98.2907 27.5775 98.1827 27.1755 97.9667 26.8035C97.7627 26.4315 97.4927 26.1375 97.1567 25.9215C96.8327 25.6935 96.4907 25.5795 96.1307 25.5795C95.6147 25.5795 95.1827 25.7835 94.8347 26.1915C94.4987 26.5875 94.3307 27.1335 94.3307 27.8295C94.3307 28.7895 95.1407 29.6295 96.7607 30.3495ZM95.2307 37.8195C95.9987 37.8195 96.5927 37.6095 97.0127 37.1895C97.4447 36.7575 97.6607 36.1575 97.6607 35.3895C97.6607 34.8135 97.3727 34.2315 96.7967 33.6435C96.2207 33.0555 95.4587 32.5575 94.5107 32.1495C93.8387 32.3895 93.3107 32.7495 92.9267 33.2295C92.5427 33.6975 92.3507 34.2975 92.3507 35.0295C92.3507 35.5335 92.4767 36.0015 92.7287 36.4335C92.9927 36.8535 93.3407 37.1895 93.7727 37.4415C94.2167 37.6935 94.7027 37.8195 95.2307 37.8195ZM107.029 38.2695C106.057 38.2695 105.175 38.0115 104.383 37.4955C103.591 36.9795 102.961 36.2295 102.493 35.2455C102.037 34.2495 101.809 33.0675 101.809 31.6995C101.809 30.3315 102.037 29.1555 102.493 28.1715C102.961 27.1755 103.591 26.4195 104.383 25.9035C105.175 25.3875 106.057 25.1295 107.029 25.1295C108.001 25.1295 108.883 25.3875 109.675 25.9035C110.467 26.4195 111.091 27.1755 111.547 28.1715C112.015 29.1555 112.249 30.3315 112.249 31.6995C112.249 33.0675 112.015 34.2495 111.547 35.2455C111.091 36.2295 110.467 36.9795 109.675 37.4955C108.883 38.0115 108.001 38.2695 107.029 38.2695ZM107.029 37.9095C108.409 37.9095 109.099 35.8395 109.099 31.6995C109.099 27.5595 108.409 25.4895 107.029 25.4895C105.649 25.4895 104.959 27.5595 104.959 31.6995C104.959 35.8395 105.649 37.9095 107.029 37.9095ZM119.088 38.2695C118.116 38.2695 117.234 38.0115 116.442 37.4955C115.65 36.9795 115.02 36.2295 114.552 35.2455C114.096 34.2495 113.868 33.0675 113.868 31.6995C113.868 30.3315 114.096 29.1555 114.552 28.1715C115.02 27.1755 115.65 26.4195 116.442 25.9035C117.234 25.3875 118.116 25.1295 119.088 25.1295C120.06 25.1295 120.942 25.3875 121.734 25.9035C122.526 26.4195 123.15 27.1755 123.606 28.1715C124.074 29.1555 124.308 30.3315 124.308 31.6995C124.308 33.0675 124.074 34.2495 123.606 35.2455C123.15 36.2295 122.526 36.9795 121.734 37.4955C120.942 38.0115 120.06 38.2695 119.088 38.2695ZM119.088 37.9095C120.468 37.9095 121.158 35.8395 121.158 31.6995C121.158 27.5595 120.468 25.4895 119.088 25.4895C117.708 25.4895 117.018 27.5595 117.018 31.6995C117.018 35.8395 117.708 37.9095 119.088 37.9095ZM131.061 37.7295L132.141 37.4595V25.9395L131.061 25.6695V25.3995H135.831C137.871 25.3995 139.341 25.7115 140.241 26.3355C141.141 26.9475 141.591 27.8055 141.591 28.9095C141.591 29.6535 141.393 30.2595 140.997 30.7275C140.601 31.1835 140.091 31.5255 139.467 31.7535C138.807 32.0055 138.105 32.1375 137.361 32.1495V32.2395C137.805 32.2635 138.195 32.3295 138.531 32.4375C139.371 32.7015 139.941 33.1755 140.241 33.8595L141.861 37.4595L142.761 37.7295V37.9995H140.241C139.257 37.9995 138.537 37.4895 138.081 36.4695L136.281 32.4195H135.111V37.4595L136.371 37.7295V37.9995H131.061V37.7295ZM135.831 31.9695C136.671 31.9695 137.331 31.7055 137.811 31.1775C138.291 30.6495 138.531 29.8935 138.531 28.9095C138.531 27.9255 138.291 27.1695 137.811 26.6415C137.331 26.1135 136.671 25.8495 135.831 25.8495H135.111V31.9695H135.831ZM149.699 38.2695C147.923 38.2695 146.579 37.8555 145.667 37.0275C144.755 36.1875 144.299 35.0115 144.299 33.4995V25.9395L143.219 25.6695V25.3995H148.349V25.6695L147.269 25.9395V33.4995C147.269 35.0475 147.509 36.1575 147.989 36.8295C148.469 37.4895 149.159 37.8195 150.059 37.8195C150.611 37.8195 151.133 37.6455 151.625 37.2975C152.129 36.9375 152.531 36.4335 152.831 35.7855C153.143 35.1255 153.299 34.3635 153.299 33.4995V26.2095L151.859 25.6695V25.3995H155.279V25.6695L153.839 26.2095V33.4995C153.839 34.4715 153.659 35.3175 153.299 36.0375C152.939 36.7575 152.447 37.3095 151.823 37.6935C151.199 38.0775 150.491 38.2695 149.699 38.2695ZM156.268 37.7295L157.348 37.4595V25.9395L156.268 25.6695V25.3995H161.128C162.952 25.3995 164.29 25.6935 165.142 26.2815C166.006 26.8575 166.438 27.6135 166.438 28.5495C166.438 29.1975 166.252 29.7195 165.88 30.1155C165.508 30.5115 165.034 30.8055 164.458 30.9975C163.846 31.2135 163.186 31.3275 162.478 31.3395V31.4295C163.354 31.4655 164.116 31.5975 164.764 31.8255C165.424 32.0415 165.97 32.3775 166.402 32.8335C166.846 33.2895 167.068 33.8715 167.068 34.5795C167.068 35.6475 166.63 36.4875 165.754 37.0995C164.878 37.6995 163.456 37.9995 161.488 37.9995H156.268V37.7295ZM161.128 31.1595C161.524 31.1595 161.89 31.0515 162.226 30.8355C162.574 30.6075 162.85 30.2955 163.054 29.8995C163.27 29.4915 163.378 29.0415 163.378 28.5495C163.378 28.0215 163.27 27.5535 163.054 27.1455C162.85 26.7375 162.574 26.4195 162.226 26.1915C161.89 25.9635 161.524 25.8495 161.128 25.8495H160.318V31.1595H161.128ZM161.488 37.5495C162.232 37.5495 162.838 37.2855 163.306 36.7575C163.774 36.2295 164.008 35.5035 164.008 34.5795C164.008 33.6555 163.774 32.9295 163.306 32.4015C162.838 31.8735 162.232 31.6095 161.488 31.6095H160.318V37.5495H161.488ZM172.288 38.8995L178.498 24.4995H179.308L173.098 38.8995H172.288ZM186.505 27.6495V37.1895L187.945 37.7295V37.9995H184.525V37.7295L185.965 37.1895V25.9395L184.885 25.6695V25.3995H187.135C187.759 25.3995 188.251 25.5315 188.611 25.7955C188.983 26.0475 189.301 26.4255 189.565 26.9295L193.489 34.4355L196.495 26.9295C196.699 26.4015 196.975 26.0175 197.323 25.7775C197.671 25.5255 198.205 25.3995 198.925 25.3995H200.815V25.6695L199.735 25.9395V37.4595L200.815 37.7295V37.9995H195.685V37.7295L196.765 37.4595V27.6495L192.535 38.1795H191.995L186.505 27.6495ZM202.262 37.1895C202.262 36.4815 202.4 35.8395 202.676 35.2635C202.964 34.6755 203.312 34.1655 203.72 33.7335C204.128 33.3015 204.662 32.7915 205.322 32.2035C205.934 31.6635 206.414 31.2135 206.762 30.8535C207.11 30.4815 207.404 30.0675 207.644 29.6115C207.884 29.1435 208.004 28.6395 208.004 28.0995C208.004 27.3075 207.812 26.6895 207.428 26.2455C207.044 25.8015 206.546 25.5795 205.934 25.5795C205.586 25.5795 205.232 25.6275 204.872 25.7235L204.494 25.8495V28.7295L204.26 28.7835C204.068 28.8075 203.906 28.8195 203.774 28.8195C203.366 28.8195 203.036 28.6995 202.784 28.4595C202.544 28.2075 202.424 27.8775 202.424 27.4695C202.424 27.0855 202.568 26.7135 202.856 26.3535C203.156 25.9935 203.594 25.6995 204.17 25.4715C204.758 25.2435 205.466 25.1295 206.294 25.1295C207.914 25.1295 209.114 25.4535 209.894 26.1015C210.674 26.7495 211.064 27.6555 211.064 28.8195C211.064 29.5515 210.872 30.1815 210.488 30.7095C210.116 31.2375 209.654 31.6755 209.102 32.0235C208.562 32.3715 207.836 32.7675 206.924 33.2115C206.156 33.5835 205.532 33.9135 205.052 34.2015C204.584 34.4775 204.146 34.8135 203.738 35.2095C203.342 35.6055 203.06 36.0555 202.892 36.5595H209.552C209.636 35.9115 209.84 35.3715 210.164 34.9395C210.296 34.7355 210.452 34.5555 210.632 34.3995H211.172V37.9995H202.262V37.1895Z" fill="white"/>
<defs>
<filter id="filter0_d_78688_2" x="-0.000244141" y="-0.000488281" width="248" height="74" filterUnits="userSpaceOnUse" color-interpolation-filters="sRGB">
<feFlood flood-opacity="0" result="BackgroundImageFix"/>
<feColorMatrix in="SourceAlpha" type="matrix" values="0 0 0 0 0 0 0 0 0 0 0 0 0 0 0 0 0 0 127 0" result="hardAlpha"/>
<feOffset dx="5" dy="5"/>
<feGaussianBlur stdDeviation="5"/>
<feColorMatrix type="matrix" values="0 0 0 0 0.890196 0 0 0 0 0.721569 0 0 0 0 0.45098 0 0 0 0.3 0"/>
<feBlend mode="normal" in2="BackgroundImageFix" result="effect1_dropShadow_78688_2"/>
<feBlend mode="normal" in="SourceGraphic" in2="effect1_dropShadow_78688_2" result="shape"/>
</filter>
</defs>
</svg>
